<?xml version="1.0" standalone="no"?>
<!DOCTYPE svg PUBLIC "-//W3C//DTD SVG 20010904//EN"
 "http://www.w3.org/TR/2001/REC-SVG-20010904/DTD/svg10.dtd">
<svg version="1.0" xmlns="http://www.w3.org/2000/svg"
 width="150.000000pt" height="142.000000pt" viewBox="0 0 150.000000 142.000000"
 preserveAspectRatio="xMidYMid meet">

<g transform="translate(0.000000,142.000000) scale(0.100000,-0.100000)"
fill="#000000" stroke="none">
<path d="M215 1283 c-54 -12 -58 -65 -10 -123 38 -46 45 -83 18 -100 -16 -9
-15 -10 6 -8 13 2 33 14 43 29 23 31 15 59 -31 106 -17 18 -31 41 -31 52 0 45
59 51 82 8 l11 -21 9 23 c5 13 7 25 6 26 -8 6 -85 12 -103 8z"/>
<path d="M604 1255 c0 -39 -32 -153 -50 -182 -14 -22 -13 -23 21 -23 20 0 34
4 31 9 -5 8 20 100 49 183 l13 36 -32 4 c-30 3 -32 1 -32 -27z"/>
<path d="M394 1263 c-1 -25 -43 -172 -55 -195 -8 -16 -6 -18 21 -18 21 0 30 5
30 16 0 9 5 34 12 55 10 34 15 39 40 39 36 0 83 24 92 45 19 51 -8 75 -83 75
-47 0 -57 -3 -57 -17z m94 -26 c4 -33 -22 -67 -50 -67 -21 0 -22 9 -6 62 9 31
16 38 32 36 15 -2 22 -12 24 -31z"/>
<path d="M745 1270 c7 -11 -42 -190 -58 -209 -10 -12 0 -13 66 -8 43 3 84 10
91 16 7 6 17 7 22 3 5 -4 6 -3 2 2 -4 4 2 18 13 29 45 49 40 140 -9 166 -26
14 -135 15 -127 1z m105 -19 c18 -35 12 -105 -13 -142 -24 -36 -71 -59 -86
-43 -8 8 19 123 44 187 9 23 42 22 55 -2z"/>
<path d="M995 1234 c-3 -25 -17 -77 -29 -115 l-22 -69 81 0 c76 0 83 2 92 23
l11 24 -36 -19 c-40 -20 -92 -24 -92 -7 0 5 5 30 11 55 12 48 37 58 70 29 15
-15 17 -14 21 14 4 26 2 29 -13 20 -30 -16 -61 -11 -55 9 3 9 8 29 12 45 5 24
11 27 45 27 32 0 41 -5 49 -22 5 -13 9 -18 9 -11 1 6 4 18 7 27 5 14 -5 16
-74 16 l-80 0 -7 -46z"/>
<path d="M1221 1191 c-12 -49 -29 -101 -36 -115 -14 -26 -13 -26 21 -26 19 0
33 3 30 8 -2 4 2 32 11 62 8 30 20 75 27 100 9 33 18 46 33 48 41 6 36 -61 -7
-91 -20 -14 -20 -17 -7 -68 11 -46 17 -54 39 -57 l26 -3 -19 57 c-11 31 -19
59 -19 61 0 2 11 8 25 13 28 11 43 54 28 79 -7 11 -28 17 -69 19 l-59 3 -24
-90z"/>
<path d="M127 1100 c-11 -41 -8 -45 31 -47 32 -1 34 0 15 9 -12 6 -26 22 -31
37 l-8 25 -7 -24z"/>
<path d="M672 977 c-13 -52 -17 -156 -7 -180 16 -38 -4 -25 -51 33 -27 33 -53
60 -57 60 -5 0 9 -20 30 -44 21 -24 47 -59 57 -77 19 -32 19 -32 0 -24 -10 4
-48 12 -84 16 -36 5 -76 11 -90 13 -18 4 -15 1 10 -10 19 -9 60 -21 90 -26 30
-6 61 -12 68 -14 26 -7 9 -30 -38 -52 -28 -13 -68 -38 -89 -56 -22 -18 -59
-38 -83 -45 -24 -6 -50 -16 -58 -22 -12 -8 -11 -9 5 -5 11 3 34 8 50 12 37 9
121 50 130 64 4 6 30 22 57 35 42 20 54 22 67 12 12 -9 13 -9 7 1 -4 6 -3 12
2 12 17 0 22 -13 9 -28 -10 -13 -9 -14 10 -4 12 7 24 12 26 12 9 0 29 -120 24
-140 -6 -24 14 -117 32 -145 12 -19 12 -19 6 0 -7 23 -22 144 -28 232 -5 57
-3 61 13 55 11 -4 18 -10 17 -14 -2 -7 47 -44 127 -97 11 -8 -9 15 -46 52 -38
36 -77 68 -88 72 -36 11 -21 23 18 14 39 -9 142 -1 142 11 0 3 -32 5 -71 3
-85 -5 -129 8 -54 16 43 5 52 11 77 46 37 52 53 90 61 140 4 22 4 33 0 25 -22
-57 -50 -111 -75 -147 -31 -46 -54 -57 -43 -22 11 34 -4 88 -28 101 -25 13
-75 12 -93 -3 -6 -5 -15 -24 -18 -42 -6 -26 -9 -29 -16 -16 -15 27 -13 136 4
186 4 12 3 24 -2 27 -6 3 -14 -13 -20 -37z"/>
<path d="M873 309 c-64 -19 -120 -103 -106 -161 11 -45 43 -68 92 -67 44 2 45
2 11 8 -49 9 -67 46 -50 107 16 56 44 92 84 110 35 15 17 17 -31 3z"/>
<path d="M547 232 c-11 -42 -25 -94 -32 -114 -13 -38 -13 -38 15 -38 25 0 28
4 34 48 3 27 9 52 13 56 4 4 8 12 9 19 9 58 26 97 44 97 31 0 37 -46 11 -81
-12 -16 -18 -29 -14 -29 30 1 56 17 69 42 14 27 14 32 -1 54 -13 21 -23 24
-73 24 l-57 0 -18 -78z"/>
<path d="M952 293 c9 -10 18 -25 21 -33 4 -12 6 -12 6 2 1 9 4 23 7 32 5 12 0
16 -21 16 -26 0 -27 -1 -13 -17z"/>
</g>
</svg>
