<?xml version="1.0" standalone="no"?>
<!DOCTYPE svg PUBLIC "-//W3C//DTD SVG 20010904//EN"
 "http://www.w3.org/TR/2001/REC-SVG-20010904/DTD/svg10.dtd">
<svg version="1.0" xmlns="http://www.w3.org/2000/svg"
 width="894.000000pt" height="894.000000pt" viewBox="0 0 894.000000 894.000000"
 preserveAspectRatio="xMidYMid meet">

<g transform="translate(0.000000,894.000000) scale(0.100000,-0.100000)"
fill="#000000" stroke="none">
<path d="M3053 8663 c-267 -419 -575 -1239 -728 -1938 -20 -88 -38 -170 -41
-183 -6 -27 20 -54 141 -145 44 -33 97 -75 118 -94 43 -38 59 -40 97 -13 45
32 75 40 214 55 226 25 689 56 734 49 75 -11 192 -123 232 -222 7 -18 10 -35
6 -39 -16 -16 -218 69 -293 124 -95 69 -214 71 -358 6 -99 -44 -254 -93 -470
-147 -77 -19 -225 -60 -330 -90 -236 -67 -301 -80 -360 -72 -37 6 -48 12 -57
34 -22 56 18 616 67 962 26 178 75 406 112 523 68 214 235 647 412 1066 34 80
60 149 59 153 -5 13 -151 -185 -261 -352 -190 -288 -345 -598 -442 -882 -91
-264 -266 -914 -355 -1316 -21 -95 -44 -180 -51 -188 -18 -22 27 -82 160 -214
122 -121 195 -170 286 -190 48 -11 49 -10 84 24 106 101 390 211 981 377 105
30 127 33 260 33 196 1 379 -33 491 -90 61 -30 62 -53 4 -73 -57 -19 -312 -26
-405 -11 -140 23 -184 24 -226 2 -43 -22 -75 -55 -119 -121 -16 -24 -75 -85
-130 -136 -465 -431 -1347 -1085 -1462 -1085 -33 0 -85 23 -139 61 -34 26 -47
30 -56 21 -51 -51 38 -952 148 -1496 61 -303 99 -425 311 -986 126 -335 272
-650 396 -855 59 -98 133 -205 142 -205 3 0 -9 37 -26 82 -174 461 -330 983
-408 1362 -68 327 -154 1018 -177 1416 -12 226 33 345 182 468 32 27 246 194
474 372 570 444 740 581 845 681 104 99 101 97 219 138 119 42 348 76 369 55
15 -15 -30 -67 -162 -189 -184 -170 -257 -218 -358 -241 -116 -26 -129 -42
-139 -180 -4 -60 -8 -408 -8 -774 -1 -883 13 -1103 105 -1640 158 -926 314
-1467 555 -1930 70 -133 209 -349 268 -415 l36 -40 -59 130 c-242 539 -411
1244 -470 1960 -35 421 -39 1564 -8 2100 15 257 9 397 -20 445 -17 29 -17 32
1 64 90 168 422 506 496 506 19 0 21 -4 16 -27 -4 -16 -27 -57 -51 -93 -67
-98 -77 -135 -77 -280 1 -225 44 -476 147 -844 119 -427 274 -830 365 -946 22
-30 30 -24 54 43 18 47 29 58 40 35 5 -10 7 -10 12 0 11 23 22 12 40 -35 24
-67 32 -73 54 -43 149 192 436 1082 495 1534 20 156 21 355 1 420 -8 27 -35
79 -60 115 -132 194 1 147 212 -74 101 -106 214 -247 248 -311 18 -32 18 -35
1 -64 -30 -50 -35 -187 -18 -475 20 -346 22 -1636 3 -1905 -57 -813 -214
-1512 -473 -2100 -67 -152 -68 -154 -33 -115 74 83 218 315 304 490 210 428
344 885 479 1630 133 730 146 901 145 1880 0 380 -4 730 -8 779 -10 116 -27
135 -139 160 -101 23 -174 71 -358 241 -132 122 -177 174 -162 189 21 21 250
-13 369 -55 118 -41 115 -39 219 -138 104 -99 316 -269 884 -712 223 -173 436
-343 473 -378 118 -110 155 -223 144 -436 -18 -330 -104 -1037 -162 -1340 -75
-385 -244 -960 -422 -1432 -18 -46 -30 -83 -27 -83 9 0 83 107 142 205 144
239 313 617 457 1020 26 72 64 175 85 230 99 254 171 561 235 1002 54 369 104
917 94 1024 -7 73 -19 79 -72 40 -54 -38 -106 -61 -139 -61 -116 0 -996 653
-1462 1085 -55 51 -114 112 -130 136 -44 66 -76 99 -119 121 -42 22 -86 21
-226 -2 -93 -15 -348 -8 -405 11 -58 20 -57 43 4 73 113 58 296 91 496 90
l150 -1 230 -67 c500 -145 759 -249 856 -342 35 -34 36 -35 84 -24 91 20 164
69 286 190 133 131 178 192 160 214 -7 8 -30 93 -51 188 -103 461 -293 1158
-378 1383 -101 272 -244 549 -419 815 -109 165 -256 365 -260 353 -2 -5 36
-101 83 -213 201 -479 364 -915 418 -1121 44 -165 79 -376 111 -664 42 -382
56 -655 36 -709 -8 -20 -19 -26 -56 -32 -59 -8 -124 5 -360 72 -104 30 -253
71 -330 90 -216 54 -371 103 -470 147 -144 65 -263 63 -358 -6 -75 -55 -277
-140 -293 -124 -4 4 -1 21 6 39 40 99 157 211 232 222 45 7 508 -24 734 -49
139 -15 169 -23 214 -55 38 -27 53 -25 92 9 18 16 80 65 137 109 56 44 109 89
116 100 12 16 9 41 -19 173 -116 534 -300 1093 -517 1562 -100 219 -257 497
-279 497 -4 0 13 -64 37 -142 188 -605 323 -1237 364 -1705 11 -129 10 -276
-2 -288 -16 -15 -144 -25 -339 -25 -249 1 -435 12 -573 36 -116 20 -136 15
-167 -47 -12 -22 -40 -61 -63 -86 -44 -48 -186 -168 -191 -162 -2 2 -13 23
-24 45 -29 57 -112 129 -179 154 -31 11 -58 19 -60 16 -2 -2 19 -50 47 -106
36 -72 50 -111 48 -133 -5 -54 -32 -45 -73 22 -20 34 -43 61 -51 61 -9 0 -24
-21 -35 -49 -24 -57 -55 -77 -93 -60 -15 7 -32 31 -45 60 -11 28 -26 49 -35
49 -8 0 -31 -27 -51 -61 -41 -67 -68 -76 -73 -22 -2 22 12 61 48 133 28 56 49
104 47 106 -2 3 -29 -5 -60 -16 -68 -26 -150 -97 -181 -157 l-22 -45 -75 59
c-90 73 -151 137 -179 192 -31 62 -51 67 -167 47 -248 -43 -873 -50 -912 -10
-12 12 -3 302 13 439 55 456 199 1089 364 1603 16 50 26 92 22 92 -4 0 -30
-35 -57 -77z"/>
</g>
</svg>
